<svg width="28" height="28" viewBox="0 0 28 28" fill="none" xmlns="http://www.w3.org/2000/svg">
<g clip-path="url(#clip0_8_2)">
<path d="M14 27.6111C12.1172 27.6111 10.3477 27.2536 8.69169 26.5386C7.03568 25.8235 5.59517 24.854 4.37017 23.6299C3.14517 22.4049 2.1756 20.9644 1.46147 19.3084C0.747342 17.6523 0.389823 15.8829 0.388916 14C0.388916 12.1172 0.746435 10.3477 1.46147 8.69169C2.17651 7.03568 3.14607 5.59517 4.37017 4.37017C5.59517 3.14517 7.03568 2.1756 8.69169 1.46147C10.3477 0.747342 12.1172 0.389823 14 0.388916C15.8829 0.388916 17.6523 0.746435 19.3084 1.46147C20.9644 2.17651 22.4049 3.14607 23.6299 4.37017C24.8549 5.59517 25.8249 7.03568 26.5399 8.69169C27.255 10.3477 27.612 12.1172 27.6111 14C27.6111 15.8829 27.2536 17.6523 26.5386 19.3084C25.8235 20.9644 24.854 22.4049 23.6299 23.6299C22.4049 24.8549 20.9644 25.8249 19.3084 26.5399C17.6523 27.255 15.8829 27.612 14 27.6111ZM14 24.8889C17.0398 24.8889 19.6146 23.8341 21.7243 21.7243C23.8341 19.6146 24.8889 17.0398 24.8889 14C24.8889 10.9602 23.8341 8.38544 21.7243 6.27572C19.6146 4.166 17.0398 3.11114 14 3.11114C10.9602 3.11114 8.38544 4.166 6.27572 6.27572C4.166 8.38544 3.11114 10.9602 3.11114 14C3.11114 17.0398 4.166 19.6146 6.27572 21.7243C8.38544 23.8341 10.9602 24.8889 14 24.8889Z" fill="black"/>
</g>
<rect x="2" y="2" width="24" height="24" rx="12" stroke="black" stroke-width="5"/>
<defs>
<clipPath id="clip0_8_2">
<rect width="28" height="28" rx="14" fill="white"/>
</clipPath>
</defs>
</svg>
