<svg width="28" height="28" viewBox="0 0 28 28" fill="none" xmlns="http://www.w3.org/2000/svg">
<g clip-path="url(#clip0_7_2)">
<path d="M22.879 0.879011C23.1546 0.587695 23.4857 0.354575 23.8529 0.193431C24.2201 0.032286 24.6158 -0.0536128 25.0168 -0.0591887C25.4177 -0.0647645 25.8157 0.0100958 26.1873 0.160967C26.5588 0.311839 26.8963 0.53566 27.1798 0.819201C27.4634 1.10274 27.6872 1.44025 27.8381 1.81177C27.9889 2.18329 28.0638 2.58129 28.0582 2.98224C28.0526 3.38319 27.9667 3.77895 27.8056 4.14613C27.6444 4.51331 27.4113 4.84446 27.12 5.12001L18.33 13.91C18.3184 13.9216 18.3091 13.9354 18.3028 13.9506C18.2965 13.9658 18.2933 13.9821 18.2933 13.9985C18.2933 14.015 18.2965 14.0312 18.3028 14.0464C18.3091 14.0616 18.3184 14.0754 18.33 14.087L27.12 22.877C27.4023 23.1547 27.6269 23.4856 27.7807 23.8505C27.9345 24.2154 28.0146 24.6072 28.0163 25.0032C28.0179 25.3992 27.9412 25.7917 27.7904 26.1579C27.6396 26.5241 27.4179 26.8568 27.1379 27.1369C26.8579 27.4169 26.5252 27.6388 26.159 27.7896C25.7929 27.9405 25.4004 28.0173 25.0044 28.0158C24.6084 28.0142 24.2166 27.9342 23.8517 27.7805C23.4867 27.6268 23.1558 27.4023 22.878 27.12L14.088 18.33C14.0764 18.3184 14.0626 18.3091 14.0474 18.3028C14.0322 18.2965 14.016 18.2933 13.9995 18.2933C13.9831 18.2933 13.9668 18.2965 13.9516 18.3028C13.9364 18.3091 13.9226 18.3184 13.911 18.33L5.12101 27.12C4.8433 27.4023 4.51245 27.6269 4.14752 27.7807C3.78259 27.9346 3.39082 28.0146 2.99481 28.0163C2.59879 28.0179 2.20636 27.9412 1.84016 27.7904C1.47396 27.6396 1.14123 27.4179 0.861168 27.1379C0.581106 26.8579 0.359252 26.5252 0.208403 26.159C0.0575546 25.7929 -0.0193035 25.4004 -0.0177378 25.0044C-0.0161721 24.6084 0.0637866 24.2166 0.217526 23.8517C0.371265 23.4867 0.595743 23.1558 0.87801 22.878L9.66801 14.088C9.67965 14.0764 9.68889 14.0626 9.69519 14.0474C9.70149 14.0322 9.70473 14.016 9.70473 13.9995C9.70473 13.9831 9.70149 13.9668 9.69519 13.9516C9.68889 13.9364 9.67965 13.9226 9.66801 13.911L0.87801 5.12101C0.322902 4.55692 0.0131803 3.79633 0.0163092 3.00492C0.0194382 2.21351 0.335165 1.45539 0.894715 0.895712C1.45427 0.336029 2.21231 0.0201239 3.00372 0.0168084C3.79513 0.0134929 4.55579 0.323036 5.12001 0.878011L13.91 9.66801C13.9216 9.67965 13.9354 9.68889 13.9506 9.69519C13.9658 9.70149 13.9821 9.70473 13.9985 9.70473C14.015 9.70473 14.0312 9.70149 14.0464 9.69519C14.0616 9.68889 14.0754 9.67965 14.087 9.66801L22.877 0.878011L22.879 0.879011Z" fill="black"/>
</g>
<defs>
<clipPath id="clip0_7_2">
<rect width="28" height="28" fill="white"/>
</clipPath>
</defs>
</svg>
