<?xml version="1.0" standalone="no"?>
<!DOCTYPE svg PUBLIC "-//W3C//DTD SVG 20010904//EN"
 "http://www.w3.org/TR/2001/REC-SVG-20010904/DTD/svg10.dtd">
<svg version="1.0" xmlns="http://www.w3.org/2000/svg"
 width="512.000000pt" height="512.000000pt" viewBox="0 0 512.000000 512.000000"
 preserveAspectRatio="xMidYMid meet">
<metadata>
Created by potrace 1.14, written by Peter Selinger 2001-2017
</metadata>
<g transform="translate(0.000000,512.000000) scale(0.100000,-0.100000)"
fill="#000000" stroke="none">
<path d="M2487 4819 c-36 -19 -69 -58 -81 -94 -5 -19 -8 -59 -21 -280 -10
-183 -25 -482 -30 -610 -2 -49 -7 -169 -11 -265 -8 -195 -11 -302 -14 -468 -4
-187 -27 -244 -115 -287 -46 -22 -65 -24 -255 -30 -523 -16 -947 -34 -1390
-60 -52 -3 -114 -7 -137 -9 -139 -10 -201 -168 -105 -269 33 -35 72 -45 202
-52 58 -3 137 -7 175 -10 39 -3 129 -7 200 -10 72 -3 162 -8 200 -10 39 -2
138 -7 220 -10 83 -3 200 -8 260 -10 61 -2 205 -7 320 -10 289 -8 301 -10 358
-64 49 -45 64 -96 67 -217 3 -116 4 -152 14 -449 9 -242 14 -372 21 -510 3
-60 7 -157 10 -215 3 -58 7 -143 10 -190 3 -47 7 -129 10 -183 6 -114 20 -155
66 -190 65 -49 149 -45 204 11 46 46 49 61 60 282 3 74 8 169 10 210 6 98 14
286 20 430 2 63 7 174 10 245 3 72 8 202 10 290 15 443 14 436 81 495 48 42
84 48 319 55 116 3 244 8 285 10 41 2 163 7 270 10 107 4 220 8 250 10 30 2
125 6 210 9 85 4 180 9 210 11 30 2 111 7 180 10 94 5 135 11 165 25 107 52
115 199 15 271 -30 21 -65 27 -225 34 -66 3 -154 8 -195 10 -243 12 -307 16
-415 20 -66 3 -174 8 -240 10 -175 6 -397 14 -580 21 -167 6 -209 15 -253 57
-52 48 -62 85 -67 254 -13 431 -34 949 -50 1233 -3 47 -7 132 -10 190 -8 169
-15 212 -36 241 -48 68 -134 93 -202 58z"/>
<path d="M3287 4555 c-62 -21 -103 -71 -114 -137 -10 -65 12 -96 228 -314 144
-145 209 -217 209 -232 0 -15 -65 -88 -210 -234 -222 -223 -238 -245 -225
-320 18 -102 125 -164 222 -127 15 5 123 105 240 221 186 185 214 209 235 203
12 -4 118 -101 233 -215 179 -177 216 -209 248 -215 84 -16 156 18 188 89 20
47 19 115 -4 149 -8 12 -105 113 -216 224 -140 141 -201 209 -201 225 0 15 62
84 205 227 220 222 241 252 230 325 -18 108 -138 171 -232 122 -17 -8 -121
-105 -231 -216 -158 -157 -206 -200 -226 -200 -21 0 -71 44 -236 209 -138 138
-220 212 -238 215 -60 13 -69 13 -105 1z"/>
<path d="M1160 4540 c-180 -41 -339 -142 -445 -282 -178 -237 -209 -541 -80
-803 115 -234 311 -380 580 -430 17 -3 67 -6 111 -6 371 0 695 270 761 636 8
50 9 218 0 265 -68 371 -385 638 -757 638 -53 0 -128 -8 -170 -18z m343 -302
c187 -80 300 -242 306 -438 3 -104 -25 -194 -92 -292 -86 -125 -235 -201 -393
-200 -184 0 -348 102 -428 267 -121 247 -20 535 229 651 86 40 96 42 220 39
82 -1 110 -6 158 -27z"/>
<path d="M3698 2099 c-125 -17 -258 -67 -352 -132 -50 -34 -171 -159 -201
-207 -147 -232 -169 -501 -62 -742 92 -207 285 -371 506 -430 87 -23 243 -31
317 -16 27 5 59 11 72 14 112 23 250 102 348 199 161 161 237 351 229 575 -7
209 -94 399 -249 543 -156 145 -399 224 -608 196z m227 -302 c248 -79 394
-336 329 -582 -67 -261 -338 -418 -595 -347 -307 85 -448 439 -285 716 60 102
191 196 308 220 72 15 184 12 243 -7z"/>
<path d="M747 2015 c-50 -17 -76 -41 -98 -90 -21 -47 -16 -105 12 -150 10 -16
107 -118 214 -225 144 -144 195 -201 195 -218 0 -18 -52 -77 -200 -224 -111
-111 -209 -217 -219 -237 -59 -118 50 -252 186 -226 31 6 71 40 254 221 119
118 223 214 230 214 23 0 37 -12 244 -218 209 -208 238 -229 308 -219 75 10
131 63 143 135 12 78 -4 102 -228 327 -127 128 -208 217 -208 229 0 12 84 104
215 236 118 120 215 221 215 226 1 5 3 26 6 46 12 80 -42 157 -123 178 -83 20
-101 9 -333 -222 -155 -154 -215 -208 -233 -208 -17 0 -74 50 -218 195 -107
107 -207 204 -224 214 -42 26 -94 32 -138 16z"/>
</g>
</svg>
